<?xml version="1.0" encoding="UTF-8" standalone="no"?>
<!-- Generator: Gravit.io -->
<svg xmlns="http://www.w3.org/2000/svg" xmlns:xlink="http://www.w3.org/1999/xlink" style="isolation:isolate" viewBox="516.737 351.111 94.039 110.589" width="94.039" height="110.589"><path d=" M 598.394 457.2 L 606.277 433.552 L 606.277 401.506 C 606.277 395.881 602.399 393.326 598.755 393.326 C 594.838 393.337 590.358 396.791 590.814 401.506 L 590.814 397.412 L 590.814 397.412 C 590.791 393.053 587.576 388.738 582.361 388.809 C 577.892 389.033 575.758 391.611 574.685 395.646 L 574.685 397.412 L 574.685 393.326 C 575.04 388.802 572.059 384.094 566.481 384.094 C 561.35 384.094 559.144 388.368 559.112 390.787 L 559.112 396.709 L 559.112 363.432 C 559.112 359.146 556.145 355.204 551.163 355.645 C 546.775 355.645 543.215 359.294 543.215 363.432 L 543.215 415.434 L 535.266 402.151 C 533.067 398.021 528.043 397.492 523.934 399.67 C 520.338 401.976 520.736 407.983 522.814 411.168 L 551.163 457.2 L 598.394 457.2 Z " fill="rgb(255,255,255)" vector-effect="non-scaling-stroke" stroke-width="3" stroke="rgb(140,100,255)" stroke-linejoin="miter" stroke-linecap="square" stroke-miterlimit="3"/></svg>