<?xml version="1.0" encoding="UTF-8" standalone="no"?>
<!-- Generator: Gravit.io -->
<svg xmlns="http://www.w3.org/2000/svg" xmlns:xlink="http://www.w3.org/1999/xlink" style="isolation:isolate" viewBox="139.349 105.808 37.346 54.354" width="37.346" height="54.354"><g><path d=" M 172.196 124.482 C 172.196 116.659 165.845 110.308 158.022 110.308 C 150.2 110.308 143.849 116.659 143.849 124.482 L 143.849 124.482 C 143.849 133.566 152.353 137.927 152.353 147.159 L 163.692 147.159 C 163.692 137.813 172.196 133.511 172.196 124.482 L 172.196 124.482 Z " fill-rule="evenodd" fill="none" vector-effect="non-scaling-stroke" stroke-width="3" stroke="rgb(140,100,255)" stroke-linejoin="miter" stroke-linecap="square" stroke-miterlimit="3"/><path d=" M 152.353 149.994 C 152.353 153.122 154.893 155.663 158.022 155.663 C 161.151 155.663 163.692 153.122 163.692 149.994 L 163.692 149.994 L 163.692 147.159 L 152.353 147.159 L 152.353 149.994 L 152.353 149.994 Z " fill-rule="evenodd" fill="none" vector-effect="non-scaling-stroke" stroke-width="3" stroke="rgb(140,100,255)" stroke-linejoin="miter" stroke-linecap="square" stroke-miterlimit="3"/><path d=" M 156.506 146.841 L 156.506 131.209 C 156.417 129.883 155.729 129.05 154.431 128.699 C 153.011 128.243 151.243 129.59 151.243 131.209 C 151.243 132.416 152.254 133.505 153.769 133.726 L 161.681 133.87 C 163.55 134.093 164.593 133.27 164.801 131.392 C 164.769 129.632 164.028 128.657 162.568 128.455 C 160.574 128.496 159.597 129.417 159.628 131.209 L 159.628 146.841" fill="none" vector-effect="non-scaling-stroke" stroke-width="1" stroke="rgb(140,100,255)" stroke-linejoin="miter" stroke-linecap="square" stroke-miterlimit="3"/></g></svg>