<?xml version="1.0" encoding="UTF-8" standalone="no"?>
<!-- Generator: Gravit.io -->
<svg xmlns="http://www.w3.org/2000/svg" xmlns:xlink="http://www.w3.org/1999/xlink" style="isolation:isolate" viewBox="544.181 91.484 43.016 43.016" width="43.016" height="43.016"><g><path d=" M 577.069 126.493 L 573.541 123.972 C 572.149 124.97 570.561 125.709 568.845 126.121 L 568.198 130 L 563.18 130 L 562.533 126.121 C 561.19 125.799 559.925 125.276 558.771 124.585 L 554.827 127.402 L 551.279 123.854 L 554.096 119.91 C 553.405 118.756 552.882 117.491 552.56 116.148 L 548.681 115.501 L 548.681 110.483 L 552.56 109.836 C 552.882 108.493 553.405 107.228 554.096 106.074 L 551.279 102.13 L 554.827 98.582 L 558.771 101.399 C 559.925 100.708 561.19 100.185 562.533 99.863 L 563.18 95.984 L 568.198 95.984 L 568.845 99.863 C 570.188 100.185 571.453 100.708 572.607 101.399 L 576.551 98.582 L 580.099 102.13 L 577.282 106.074 C 577.973 107.228 578.496 108.493 578.818 109.836 L 582.697 110.483 L 582.697 115.501 L 578.818 116.148 C 578.58 117.14 578.232 118.089 577.789 118.983 L 580.618 122.944 L 577.069 126.493 Z " fill-rule="evenodd" fill="none" vector-effect="non-scaling-stroke" stroke-width="3" stroke="rgb(0,0,0)" stroke-linejoin="miter" stroke-linecap="square" stroke-miterlimit="3"/><circle vector-effect="non-scaling-stroke" cx="565.6889737462327" cy="113.12450754940534" r="5.062647735177279" fill="none" stroke-width="3" stroke="rgb(0,0,0)" stroke-linejoin="miter" stroke-linecap="square" stroke-miterlimit="3"/></g></svg>